<?xml version="1.0" encoding="utf-8"?>
<!-- Generator: Adobe Illustrator 22.1.0, SVG Export Plug-In . SVG Version: 6.00 Build 0)  -->
<svg version="1.1" id="Capa_1" focusable="false" xmlns="http://www.w3.org/2000/svg" xmlns:xlink="http://www.w3.org/1999/xlink"
	 x="0px" y="0px" viewBox="0 0 512 512" style="enable-background:new 0 0 512 512;" xml:space="preserve">
<style type="text/css">
	.st0{fill:#FFFFFF;}
</style>
<path class="st0" d="M114.6,512H8.5V170.2h106.2L114.6,512L114.6,512z M61.5,123.5c-34,0-61.5-28.1-61.5-62S27.5,0,61.5,0
	S123,27.5,123,61.5S95.4,123.5,61.5,123.5z M511.9,512h-106V345.6c0-39.7-0.8-90.5-55.2-90.5c-55.2,0-63.7,43.1-63.7,87.7V512H181
	V170.2h101.8v46.6h1.5c14.2-26.9,48.8-55.2,100.5-55.2c107.4,0,127.2,70.7,127.2,162.6V512H511.9z"/>
</svg>
