<?xml version="1.0" encoding="utf-8"?>
<!-- Generator: Adobe Illustrator 22.1.0, SVG Export Plug-In . SVG Version: 6.00 Build 0)  -->
<svg version="1.1" id="Capa_1" xmlns="http://www.w3.org/2000/svg" xmlns:xlink="http://www.w3.org/1999/xlink" x="0px" y="0px"
	 viewBox="0 0 511 511" style="enable-background:new 0 0 511 511;" xml:space="preserve">
<style type="text/css">
	.st0{fill:none;stroke:#2A406A;stroke-width:32;stroke-miterlimit:10;}
</style>
<g id="Capa_3">
	<path class="st0" d="M395.6,365.6l-209.3-38.5L395.6,365.6L395.6,365.6l-209.3-38.5l9.4,1.3c-40.9-3.3-74-38.7-74-81.2v-17.3
		l-0.5,5.6c0-48.9,45.9-88.7,102.4-88.7c3.8,0,7.8,0.3,11.6,0.6l-10.2-0.6h73.4c54.9,0,99.6,45.1,99.6,100.1l0,0
		c0,2.2-0.1,4.1-0.3,6.2l-0.8-23.6v168.3c0,52.7-42.9,95.8-95.4,95.8h-85.9c-52.5,0-95.4-43.1-95.4-95.8V113.8
		c0-52.7,42.9-95.8,95.4-95.8h70.6"/>
</g>
<g id="Capa_2_1_">
</g>
</svg>
