<svg xmlns="http://www.w3.org/2000/svg" xmlns:xlink="http://www.w3.org/1999/xlink" version="1.1" x="0px" y="0px" style="enable-background:new 0 0 612 792;" xml:space="preserve" viewBox="186.4 195 247.8 405">
<style type="text/css">
	.st0{fill:none;stroke:url(#SVGID_1_);stroke-width:25;stroke-miterlimit:10;}
</style>
<g id="Capa_3">
	<radialGradient id="SVGID_1_" cx="310.4009" cy="397.5" r="167.8655" gradientUnits="userSpaceOnUse">
		<stop offset="0" style="stop-color:#FFFFFF"/>
		<stop offset="1" style="stop-color:#8FAE94"/>
	</radialGradient>
	<path class="st0" d="M419.8,485l-168-30.7L419.8,485L419.8,485l-168-30.7l7.6,1c-32.8-2.6-59.4-30.9-59.4-64.8v-13.8l-0.4,4.5   c0-39.1,36.8-70.8,82.2-70.8c3.1,0,6.2,0.2,9.3,0.5l-8.2-0.5h58.9c44,0,79.9,36,79.9,80v0c0,1.7-0.1,3.3-0.2,5l-0.6-18.8V511   c0,42.1-34.4,76.5-76.5,76.5h-69c-42.1,0-76.5-34.4-76.5-76.5V284c0-42.1,34.4-76.5,76.5-76.5H332"/>
</g>
<g id="Capa_2">
</g>
</svg>