<?xml version="1.0" encoding="utf-8"?>
<!-- Generator: Adobe Illustrator 22.1.0, SVG Export Plug-In . SVG Version: 6.00 Build 0)  -->
<svg version="1.1" id="Capa_1" xmlns="http://www.w3.org/2000/svg" xmlns:xlink="http://www.w3.org/1999/xlink" x="0px" y="0px"
	 viewBox="0 0 247.8 405" style="enable-background:new 0 0 247.8 405;" xml:space="preserve">
<style type="text/css">
	.st0{fill:none;stroke:#FFFFFF;stroke-width:25;stroke-miterlimit:10;}
</style>
<g id="Capa_3">
	<path class="st0" d="M233.4,290l-168-30.7L233.4,290L233.4,290l-168-30.7l7.6,1c-32.8-2.6-59.4-30.9-59.4-64.8v-13.8l-0.4,4.5
		c0-39.1,36.8-70.8,82.2-70.8c3.1,0,6.2,0.2,9.3,0.5l-8.2-0.5h58.9c44,0,79.9,36,79.9,80l0,0c0,1.7-0.1,3.3-0.2,5l-0.6-18.8V316
		c0,42.1-34.4,76.5-76.5,76.5H89c-42.1,0-76.5-34.4-76.5-76.5V89c0-42.1,34.4-76.5,76.5-76.5h56.6"/>
</g>
<g id="Capa_2_1_">
</g>
</svg>
